PathFileType	4	(X/Y/Z)	C:/Users/opensim2020/Desktop/walking_exp_matlab/subject03_walking12_straight_02.trc	
DataRate	CameraRate	NumFrames	NumMarkers	Units	OrigDataRate	OrigDataStartFrame	OrigNumFrames	
100.00	100.00	4	48	mm	100.00	1101	187	
Frame#	Time	LFHD			RFHD			LBHD			RBHD			C7			T10			CLAV			STRN			RBAK			LSHO			LUPA			LELB			LFRM			LWRA			LWRB			LFIN			RSHO			RUPA			RELB			RFRM			RWRA			RWRB			RFIN			LASI			RASI			LPSI			RPSI			LTHI			LKNE			LTIB			LANK			LHEE			LTOE			RTHI			RKNE			RTIB			RANK			RHEE			RTOE			*39			*40			*41			*42			*43			*44			*45			*46			*47			
		X1	Y1	Z1	X2	Y2	Z2	X3	Y3	Z3	X4	Y4	Z4	X5	Y5	Z5	X6	Y6	Z6	X7	Y7	Z7	X8	Y8	Z8	X9	Y9	Z9	X10	Y10	Z10	X11	Y11	Z11	X12	Y12	Z12	X13	Y13	Z13	X14	Y14	Z14	X15	Y15	Z15	X16	Y16	Z16	X17	Y17	Z17	X18	Y18	Z18	X19	Y19	Z19	X20	Y20	Z20	X21	Y21	Z21	X22	Y22	Z22	X23	Y23	Z23	X24	Y24	Z24	X25	Y25	Z25	X26	Y26	Z26	X27	Y27	Z27	X28	Y28	Z28	X29	Y29	Z29	X30	Y30	Z30	X31	Y31	Z31	X32	Y32	Z32	X33	Y33	Z33	X34	Y34	Z34	X35	Y35	Z35	X36	Y36	Z36	X37	Y37	Z37	X38	Y38	Z38	X39	Y39	Z39	X40	Y40	Z40	X41	Y41	Z41	X42	Y42	Z42	X43	Y43	Z43	X44	Y44	Z44	X45	Y45	Z45	X46	Y46	Z46	X47	Y47	Z47	X48	Y48	Z48	

1	0.000	1442.11926	1358.93884	1624.06738	1310.08862	1373.75623	1627.73999	1451.65649	1485.47253	1577.68103	1321.17505	1495.39868	1580.97864	1405.55347	1518.41919	1420.45691	1417.37524	1558.91138	1109.76355	1387.46326	1398.97913	1342.96484	1393.10974	1354.85339	1177.82874	1326.22314	1589.05823	1244.78784	1546.69019	1417.97705	1384.83728	1625.07361	1416.58850	1191.27173	1640.26819	1408.54309	1068.32312	1644.42969	1389.16968	939.11963	1621.61096	1385.94067	817.29254	1676.06177	1395.57849	829.69409	1674.38403	1388.22083	745.47437	1238.35242	1474.65503	1366.21167	1176.62671	1471.74890	1141.03357	1170.01685	1444.64148	1030.96716	1175.77917	1406.27185	899.69305	1214.35486	1356.41443	815.36200	1176.46069	1391.17859	800.10620	1186.12573	1351.33130	738.43774	1526.55444	1385.89038	950.60608	1288.60864	1403.03027	938.31122	1485.61902	1550.92834	973.10406	1337.75464	1559.60095	967.18463	1586.69263	1451.78979	651.27454	1553.92761	1456.03479	473.91672	1571.91101	1524.46643	285.95731	1545.27466	1560.18250	74.07858	1510.41443	1602.99597	36.95471	1521.84045	1409.60437	36.63500	1263.36194	1391.15881	641.90472	1295.84363	1315.32019	479.51715	1314.11572	1408.39929	311.91803	1377.40234	1513.49475	130.60878	1434.55029	1563.44495	119.28222	1392.20447	1401.64246	48.09925																											 
2	0.010	1443.49622	1346.90527	1623.33826	1311.51685	1362.24243	1626.97852	1453.47241	1473.48157	1577.05847	1323.08459	1483.83801	1580.32361	1407.63062	1506.71997	1419.73401	1420.44385	1546.99951	1109.08960	1389.14673	1387.37708	1342.24963	1394.75061	1343.08911	1177.57739	1329.27283	1577.63879	1243.94702	1548.27441	1405.77954	1384.60083	1628.05786	1401.59753	1191.81189	1643.87488	1390.04211	1069.27661	1648.04895	1366.08789	940.81122	1625.13428	1358.07336	819.27618	1679.40100	1368.74780	831.14264	1677.66833	1357.61938	747.47827	1240.23389	1463.53406	1365.11255	1178.39209	1463.41589	1140.06055	1171.25623	1438.01086	1029.57507	1176.35754	1401.96204	897.52252	1214.13037	1353.46252	812.04224	1176.54224	1388.97571	797.68018	1185.81848	1350.34082	734.97925	1528.57397	1373.86487	949.10486	1290.68433	1391.72083	937.81665	1488.02173	1538.91968	972.49896	1340.28662	1548.27771	966.81763	1587.54395	1444.19165	650.08167	1555.00439	1452.24036	473.13934	1572.24182	1522.38220	285.79340	1545.17432	1560.01489	74.18372	1510.40552	1603.01978	37.24360	1521.95679	1409.55310	36.71523	1263.13062	1379.11047	644.23865	1297.96265	1299.59863	481.25470	1317.15430	1384.55359	308.76715	1382.19312	1477.49670	121.24287	1439.45007	1526.53809	107.07052	1394.10657	1360.52478	46.31931	1406.04529	1434.83179	1682.02698																								 
3	0.020	1444.85095	1334.91284	1622.38550	1312.97485	1350.60229	1625.95508	1455.35706	1461.49060	1576.20667	1324.97412	1472.30054	1579.42603	1409.59229	1494.93982	1418.76025	1423.30774	1535.08801	1108.08081	1390.73193	1375.69458	1341.21387	1396.18640	1331.26624	1176.52881	1332.20447	1566.03052	1242.68994	1549.87842	1393.55029	1383.99207	1630.74487	1386.40540	1191.83435	1647.53491	1371.60083	1069.95581	1651.68250	1342.98657	942.47711	1628.47522	1330.08948	821.46118	1682.60950	1341.82410	832.64886	1680.46545	1326.96533	749.35394	1242.31055	1452.84290	1363.82886	1180.06104	1454.88086	1138.66443	1172.39673	1431.17883	1027.88538	1177.02344	1397.73828	895.00739	1213.60413	1349.88013	808.66473	1176.56726	1386.66858	794.93671	1185.38904	1349.48657	731.28925	1530.44653	1362.24963	947.19678	1292.62061	1379.60278	937.37103	1490.33191	1527.08240	971.61047	1342.62512	1536.88989	966.02045	1588.42908	1436.09253	648.78650	1555.84180	1448.05286	472.16190	1572.63721	1520.28796	285.70474	1545.19031	1559.86414	74.50031	1510.29346	1603.01611	37.65567	1522.08838	1409.48254	36.75142	1265.16504	1363.00464	644.12146	1299.91638	1284.42444	482.54150	1319.62329	1360.82275	305.64343	1385.49463	1441.12756	112.35259	1443.23254	1487.97253	94.93750	1394.89734	1319.68970	44.90955																											 
4	0.030	1446.18335	1322.84949	1621.20325	1314.25574	1339.02600	1624.77966	1457.07825	1449.40442	1575.09546	1326.75354	1460.60327	1578.21277	1411.39539	1482.99915	1417.47620	1425.91101	1523.10083	1106.80383	1392.32581	1363.92224	1339.96997	1398.47437	1320.45313	1174.60107	1335.01343	1554.34277	1241.08777	1551.44067	1381.39099	1383.02649	1633.40881	1371.22217	1191.62134	1651.15625	1353.28687	1070.54431	1655.14746	1319.95105	944.04987	1631.62903	1301.76355	823.58514	1685.62915	1314.91235	834.17023	1683.10388	1296.51196	751.60767	1243.98486	1441.50208	1362.04590	1181.64880	1446.14075	1137.00012	1173.45032	1424.20972	1025.89441	1177.19177	1393.35596	892.52002	1213.53491	1347.36206	804.68573	1176.55518	1384.31836	792.04669	1185.00659	1348.51147	727.46973	1531.95911	1349.82410	945.21191	1294.77942	1368.84753	936.28033	1492.22437	1515.27197	970.37061	1344.74304	1525.43286	964.90247	1589.05127	1428.31494	647.44470	1556.61487	1443.66858	471.15591	1572.87463	1518.16504	285.65170	1545.02649	1559.59265	74.82642	1510.06824	1602.97607	38.16169	1522.18445	1409.56873	36.61580	1266.04150	1348.85327	644.41437	1301.67871	1269.77332	483.44244	1321.62964	1337.10864	302.39249	1388.03320	1404.20557	104.13029	1447.12073	1448.59070	83.51570	1395.09070	1278.88367	44.24957	1406.15967	1411.52222	1680.03870																								 
